<?xml version="1.0" encoding="UTF-8" standalone="no"?>
<!-- Created with Inkscape (http://www.inkscape.org/) -->

<svg
   xmlns:dc="http://purl.org/dc/elements/1.1/"
   xmlns:cc="http://creativecommons.org/ns#"
   xmlns:rdf="http://www.w3.org/1999/02/22-rdf-syntax-ns#"
   xmlns:svg="http://www.w3.org/2000/svg"
   xmlns="http://www.w3.org/2000/svg"
   xmlns:sodipodi="http://sodipodi.sourceforge.net/DTD/sodipodi-0.dtd"
   xmlns:inkscape="http://www.inkscape.org/namespaces/inkscape"
   width="190.98203"
   height="38.242393"
   id="svg2"
   version="1.1"
   inkscape:version="0.48.0 r9654"
   sodipodi:docname="translate_logo.svg">
  <defs
     id="defs4" />
  <sodipodi:namedview
     id="base"
     pagecolor="#ffffff"
     bordercolor="#666666"
     borderopacity="1.0"
     inkscape:pageopacity="0.0"
     inkscape:pageshadow="2"
     inkscape:zoom="2.8567114"
     inkscape:cx="82.556193"
     inkscape:cy="23.49365"
     inkscape:document-units="px"
     inkscape:current-layer="layer1"
     showgrid="false"
     inkscape:window-width="1366"
     inkscape:window-height="716"
     inkscape:window-x="-8"
     inkscape:window-y="-8"
     inkscape:window-maximized="1"
     showguides="true"
     inkscape:guide-bbox="true"
     fit-margin-top="1"
     fit-margin-left="1"
     fit-margin-right="1"
     fit-margin-bottom="1" />
  <metadata
     id="metadata7">
    <rdf:RDF>
      <cc:Work
         rdf:about="">
        <dc:format>image/svg+xml</dc:format>
        <dc:type
           rdf:resource="http://purl.org/dc/dcmitype/StillImage" />
        <dc:title></dc:title>
      </cc:Work>
    </rdf:RDF>
  </metadata>
  <g
     inkscape:label="Layer 1"
     inkscape:groupmode="layer"
     id="layer1"
     transform="translate(-377.26933,-101.2378)">
    <g
       transform="translate(371.05604,26.604018)"
       style="font-size:18px;font-style:normal;font-variant:normal;font-weight:normal;font-stretch:normal;line-height:125%;letter-spacing:0px;word-spacing:0px;fill:#37ce80;fill-opacity:1;stroke:none;font-family:Tahoma;-inkscape-font-specification:Tahoma"
       id="flowRoot2985">
      <path
         d="m 60.703125,108.55224 -5.953125,0 c -1.984379,0 -2.976566,-0.97656 -2.976563,-2.92969 l 0,-16.17187 -2.53125,0 0,-4.570313 2.53125,0 c 0,0 -0.245086,-3.639661 1.268564,-5.153311 1.259534,-1.259534 4.075186,-1.268564 4.075186,-1.268564 l 0,6.421875 3.445313,0 0,4.570313 -3.445313,0 0,14.53125 3.585938,0 z"
         style="font-size:48px;font-weight:bold;fill:#37ce80;font-family:Agency FB;-inkscape-font-specification:Agency FB Bold"
         id="path3768"
         inkscape:connector-curvature="0"
         sodipodi:nodetypes="cssccccscccccccc" />
      <path
         d="m 78.632812,94.770992 -5.320312,0 0,-5.414062 -4.242188,0.09375 0,19.10156 -5.367187,0 0,-23.671873 5.367187,0 0,0.867188 c 1.109367,-0.203102 2.210928,-0.406227 3.304688,-0.609375 1.328113,-0.234351 2.437487,-0.351539 3.328125,-0.351563 1.953109,2.4e-5 2.929671,0.960961 2.929687,2.882813 z"
         style="font-size:48px;font-weight:bold;fill:#37ce80;font-family:Agency FB;-inkscape-font-specification:Agency FB Bold"
         id="path3770"
         inkscape:connector-curvature="0" />
      <path
         d="m 96.960937,108.55224 -5.132812,0 0,-0.82031 c -1.218761,0.1875 -2.43751,0.375 -3.65625,0.5625 -1.593757,0.23437 -2.804693,0.35156 -3.632813,0.35156 -1.953127,0 -2.929689,-0.96093 -2.929687,-2.88281 l 0,-8.53125 c -2e-6,-1.953112 1.00781,-2.929673 3.023437,-2.929688 l 7.242188,0 0,-5.4375 -5.132813,0 0,3.375 -4.851562,0 0,-4.429687 c -2e-6,-1.953102 1.007809,-2.929664 3.023437,-2.929688 l 9.070313,0 c 1.984359,2.4e-5 2.976545,0.976586 2.976562,2.929688 z m -5.085937,-4.26562 0,-6.351565 -5.132813,0 0,6.539065 z"
         style="font-size:48px;font-weight:bold;fill:#37ce80;font-family:Agency FB;-inkscape-font-specification:Agency FB Bold"
         id="path3772"
         inkscape:connector-curvature="0" />
      <path
         d="m 116.625,108.55224 -5.39062,0 0,-19.19531 -5.03907,0.09375 0,19.10156 -5.36718,0 0,-23.671873 5.36718,0 0,0.867188 c 1.24999,-0.203102 2.49218,-0.398414 3.72657,-0.585938 1.53123,-0.249976 2.78904,-0.374976 3.77343,-0.375 1.95311,2.4e-5 2.92967,0.960961 2.92969,2.882813 z"
         style="font-size:48px;font-weight:bold;fill:#37ce80;font-family:Agency FB;-inkscape-font-specification:Agency FB Bold"
         id="path3774"
         inkscape:connector-curvature="0" />
      <path
         d="m 135.39844,105.62255 c -2e-5,1.95313 -0.99221,2.92969 -2.97657,2.92969 l -9.02343,0 c -1.98438,0 -2.97657,-0.97656 -2.97656,-2.92969 l 0,-5.08593 5.13281,0 0,3.98437 4.71093,0 0,-3.75 -8.22656,-4.85156 c -1.07812,-0.640612 -1.61719,-1.499986 -1.61718,-2.578125 l 0,-5.53125 c -1e-5,-1.953102 1.0078,-2.929664 3.02343,-2.929688 l 8.92969,0 c 1.98436,2.4e-5 2.97655,0.976586 2.97656,2.929688 l 0,4.757812 -5.08594,0 0,-3.65625 -4.71093,0 0,3.421875 8.20312,4.804688 c 1.09374,0.625011 1.64061,1.50001 1.64063,2.625 z"
         style="font-size:48px;font-weight:bold;fill:#37ce80;font-family:Agency FB;-inkscape-font-specification:Agency FB Bold"
         id="path3776"
         inkscape:connector-curvature="0" />
      <path
         d="m 144.58594,108.55224 -5.27344,0 0.0219,-23.677745 c 0.30506,-3.763606 1.68883,-1.96733 5.25154,-1.996516 z"
         style="font-size:48px;font-weight:bold;fill:#37ce80;font-family:Agency FB;-inkscape-font-specification:Agency FB Bold"
         id="path3778"
         inkscape:connector-curvature="0"
         sodipodi:nodetypes="ccccc" />
      <path
         d="m 163.80469,108.55224 -5.13282,0 0,-0.82031 c -1.21876,0.1875 -2.4375,0.375 -3.65625,0.5625 -1.59375,0.23437 -2.80469,0.35156 -3.63281,0.35156 -1.95313,0 -2.92969,-0.96093 -2.92969,-2.88281 l 0,-8.53125 c 0,-1.953112 1.00781,-2.929673 3.02344,-2.929688 l 7.24219,0 0,-5.4375 -5.13281,0 0,3.375 -4.85157,0 0,-4.429687 c 0,-1.953102 1.00781,-2.929664 3.02344,-2.929688 l 9.07031,0 c 1.98436,2.4e-5 2.97655,0.976586 2.97657,2.929688 z m -5.08594,-4.26562 0,-6.351565 -5.13281,0 0,6.539065 z"
         style="font-size:48px;font-weight:bold;fill:#37ce80;font-family:Agency FB;-inkscape-font-specification:Agency FB Bold"
         id="path3780"
         inkscape:connector-curvature="0" />
      <path
         d="m 196.19531,105.62255 c -1e-5,1.95313 -1.00783,2.92969 -3.02344,2.92969 l -9.25781,0 c -2.01563,0 -3.02344,-0.97656 -3.02344,-2.92969 l 0,-17.812495 c 0,-1.953102 1.00781,-2.929664 3.02344,-2.929688 l 9.25781,0 c 2.01561,2.4e-5 3.02343,0.976586 3.02344,2.929688 l 0,8.695312 -1.47656,1.476563 -8.69531,0 0,6.63281 5.03906,0 0,-3.9375 5.13281,0 z m -5.13281,-11.132808 0,-5.671875 -5.03906,0 0,5.671875 z"
         style="font-size:48px;font-weight:bold;fill:#37ce80;font-family:Agency FB;-inkscape-font-specification:Agency FB Bold"
         id="path3784"
         inkscape:connector-curvature="0" />
      <path
         d="m 139.33411,84.869025 c 0,0 -0.24509,-3.639661 1.26856,-5.153311 1.25954,-1.259534 3.98221,-1.268564 3.98221,-1.268564 l 0,6.421875 c -3.82961,-2.545016 -3.42222,0.886212 -5.25077,0 z"
         style="font-size:48px;font-style:normal;font-variant:normal;font-weight:bold;font-stretch:normal;line-height:125%;letter-spacing:0px;word-spacing:0px;fill:#37ce80;fill-opacity:1;stroke:none;font-family:Agency FB;-inkscape-font-specification:Agency FB Bold"
         id="path3768-3"
         inkscape:connector-curvature="0"
         sodipodi:nodetypes="csccc" />
      <path
         d="m 177.88297,108.56184 -5.95313,0 c -1.98438,0 -2.97656,-0.97656 -2.97656,-2.92968 l 0,-16.171877 -2.53125,0 0,-4.570313 2.53125,0 c 0,0 -0.24509,-3.639661 1.26856,-5.153311 1.25954,-1.259534 4.07519,-1.268564 4.07519,-1.268564 l 0,6.421875 3.44531,0 0,4.570313 -3.44531,0 0,14.531257 3.58594,0 z"
         style="font-size:48px;font-style:normal;font-variant:normal;font-weight:bold;font-stretch:normal;line-height:125%;letter-spacing:0px;word-spacing:0px;fill:#37ce80;fill-opacity:1;stroke:none;font-family:Agency FB;-inkscape-font-specification:Agency FB Bold"
         id="path3768-5"
         inkscape:connector-curvature="0"
         sodipodi:nodetypes="cssccccscccccccc" />
    </g>
    <g
       id="g3834"
       transform="matrix(0.60007895,0,0,0.60007895,169.13291,48.239126)">
      <path
         id="path2995"
         d="m 408.91088,120.18397 c 0,16.6779 -13.52011,30.19802 -30.19802,30.19802 -16.67791,0 -30.19802,-13.52012 -30.19802,-30.19802 0,-16.67791 13.52011,-30.198021 30.19802,-30.198021 16.67791,0 30.19802,13.520111 30.19802,30.198021 z"
         style="fill:#37ce80;fill-opacity:1;stroke:none"
         inkscape:connector-curvature="0" />
      <path
         sodipodi:nodetypes="csscc"
         inkscape:connector-curvature="0"
         id="path3765"
         d="m 361.7164,108.94283 c 8.78712,-5.94059 32.17822,-6.18813 34.65346,-4.70298 2.47525,1.48515 -14.27254,17.71865 -22.0297,14.60396 -7.77607,-3.12228 7.92079,29.45545 1.73267,23.51486 C 367.4242,130.663 353.66876,114.9061 361.7164,108.94283 z"
         style="fill:#ffffff;fill-opacity:1;stroke:none" />
    </g>
  </g>
</svg>
